<svg xmlns="http://www.w3.org/2000/svg" width="200" height="200" fill="none" viewBox="0 0 200 200">
<!-- SVG created with Arrow, by QuiverAI (https://quiver.ai) -->
  <path d="m187.6 5h-175.4c-4.79 0-7.18 4.35-7.18 7.61v174.6c0 4.79 3.31 7.72 7.18 7.72h175.4c5.22 0 7.39-4.39 7.39-7.72v-174.6c0-4.55-3.15-7.61-7.39-7.61z" fill="url(#paint0_linear_2991_10251)"/>
  <path d="m130 127.9c-1.47 1.98-2.77 3.9-3.64 5.52 0.39 1.09 0.65 2.25 0.65 3.49v20.71c0 3.08-2.54 4.43-4.78 4.43h-40.68c-2.79 0-3.77-1.97-3.77-4.51v-22.89c0-1.83 0.91-2.8 2.58-2.8h23.84l5.35-7.28h-31.46c-11.61-10.6-21.73-21.78-21.73-39.25 0-9.57 3.96-14.5 10.18-14.5 3.51 0 4.83 8.9 4.83 10.5 0 2.63-0.44 3.91-0.27 6.11 0.15 2.09 1.61 2.59 2.76 2.59 1.97 0 2.78-1.35 2.78-6.52 0-8.55-4.36-13.35-4.36-18.15 0-16.13 7.89-26.62 29.67-26.62 16.98 0 34.62 6.22 34.62 28.19 0 8.83-0.91 12.79-3.48 30.77 4.61-5.48 5.74-6.29 7.66-7.74 1.6-9.86 2.63-15.05 2.63-21.19 0-20.91-12.07-35.9-41.2-35.9-22.12 0-36.03 10.59-36.03 31.67v0.28c-0.4-0.07-0.83-0.1-1.36-0.1-7.56 0-14.75 7.49-14.75 20.78 0 15.71 8.66 30.26 23.18 43.31-1.1 1.85-1.85 3.45-1.85 7.28v21.69c0 5.74 4.86 10.05 9.55 10.05h41.6c6.31 0 10.73-5.77 10.73-9.87v-21.6c0-3.33-0.7-6.43-3.25-8.45z" fill="url(#paint1_linear_2991_10251)"/>
  <path d="m145.8 94.78c-1.9 0-3.13 1.33-3.99 2.17-14.22 13.51-25.59 27.13-40.49 48.21l-6.46-7.43c-1.21-1.21-2.3-1.66-3.63-1.66-2.86 0-4.35 2.49-4.35 4.24 0 1.85 0.8 3.06 1.97 4.21l9.85 10.91c0.75 0.83 1.85 1.16 2.89 1.16 1.61 0 2.68-0.93 3.76-2.78 11.48-19.2 23.4-35.74 42.87-51.57 1.27-1.05 1.59-2.33 1.59-3.64 0-2.19-1.75-3.82-4.01-3.82z" fill="url(#paint2_linear_2991_10251)"/>
  <defs>
    <linearGradient id="paint0_linear_2991_10251" x1="100" x2="100" y1="5" y2="194.9" gradientUnits="userSpaceOnUse">
      <stop stop-color="#111" offset="0"/>
      <stop stop-color="#121414" offset="1"/>
    </linearGradient>
    <linearGradient id="paint1_linear_2991_10251" x1="97.5" x2="97.5" y1="32.82" y2="167.8" gradientUnits="userSpaceOnUse">
      <stop stop-color="#F8283B" offset="0"/>
      <stop stop-color="#EA2235" offset=".1042"/>
      <stop stop-color="#D01B2C" offset=".2031"/>
      <stop stop-color="#B11423" offset=".349"/>
      <stop stop-color="#A2111E" offset=".5469"/>
      <stop stop-color="#900D19" offset=".7656"/>
      <stop stop-color="#A7131F" offset=".8958"/>
      <stop stop-color="#C11925" offset="1"/>
    </linearGradient>
    <linearGradient id="paint2_linear_2991_10251" x1="118.4" x2="118.4" y1="94.78" y2="156.6" gradientUnits="userSpaceOnUse">
      <stop stop-color="#F8283B" offset="0"/>
      <stop stop-color="#EA2235" offset=".1042"/>
      <stop stop-color="#D01B2C" offset=".2031"/>
      <stop stop-color="#B11423" offset=".349"/>
      <stop stop-color="#A2111E" offset=".5469"/>
      <stop stop-color="#900D19" offset=".7656"/>
      <stop stop-color="#A7131F" offset=".8958"/>
      <stop stop-color="#C11925" offset="1"/>
    </linearGradient>
  </defs>
</svg>
